<svg xmlns="http://www.w3.org/2000/svg" xmlns:xlink="http://www.w3.org/1999/xlink" width="648.902" height="416.887" viewBox="0 0 648.902 416.887"><defs><clipPath id="clip-path"><rect id="Rectangle_1" data-name="Rectangle 1" width="648.902" height="416.887" fill="none"></rect></clipPath></defs><g id="Group_4" data-name="Group 4" transform="translate(-527.007 -384)"><path id="Path_1" data-name="Path 1" d="M48.465,0,0,333.439H50.756l14.98-105.566L71.2,333.439h50.227L107.152,211.307l45.117-106.447H103.627L69.613,198.618,97.282,0Z" transform="translate(527.007 384)" fill="#00acec"></path><path id="Path_2" data-name="Path 2" d="M108.961,59.5h53.047l4.053,104.861L183.509,59.5h41.239L190.382,288.079H142.27l-5.463-115.611L118.83,288.079H75.3Z" transform="translate(584.413 429.36)" fill="#00acec"></path><path id="Path_3" data-name="Path 3" d="M148.6,288.079,218.213,59.5H284.3L270.908,288.079H223.677l5.287-45.469H207.992l-11.1,45.469ZM245.882,87.169,217.156,205.424h16.038Z" transform="translate(640.295 429.36)" fill="#00acec"></path><g id="Group_1" data-name="Group 1" transform="translate(527.007 384)" clip-path="url(#clip-path)"><path id="Path_4" data-name="Path 4" d="M259.247,59.5h49.346L279.162,248.425a6.521,6.521,0,0,0,3.349,6.168,7.4,7.4,0,0,0,10.045-1.939c.881-1.057,1.41-3.877,2.115-7.578S324.1,59.5,324.1,59.5H373.1L342.96,253.889s-1.939,25.907-26.788,34.895c-2.467.881-12.513,4.758-34.366,4.935-.7,0-21.853-.352-31.194-4.582-.881-.352-14.1-4.23-20.8-21.677-.176-.529-3.525-12.16.7-29.96.529-2.115,28.9-178,28.9-178" transform="translate(174.118 45.361)" fill="#00acec"></path></g><path id="Path_5" data-name="Path 5" d="M342.908,59.5,295.5,371.438h50.756l30.665-192.274h28.022l6.344-37.891H381.5L388.2,95.8h30.136l5.287-36.3Z" transform="translate(752.286 429.36)" fill="#00acec"></path></g></svg>