<svg xmlns="http://www.w3.org/2000/svg" xmlns:xlink="http://www.w3.org/1999/xlink" id="Layer_1" x="0px" y="0px" viewBox="0 0 178.3 50.1" style="enable-background:new 0 0 178.3 50.1;" xml:space="preserve"><style type="text/css">	.st0{fill:url(#SVGID_1_);}	.st1{fill:url(#SVGID_2_);}	.st2{fill:url(#SVGID_3_);}	.st3{fill:red;}</style><title>centerAsset 2edan-icon3</title><g>			<linearGradient id="SVGID_1_" gradientUnits="userSpaceOnUse" x1="0.2417" y1="-43.7365" x2="46.9708" y2="4.1897" gradientTransform="matrix(1 0 0 1 0 43.7274)">		<stop offset="0" style="stop-color:#008ED3"></stop>		<stop offset="0.201" style="stop-color:#0092BE"></stop>		<stop offset="0.613" style="stop-color:#009B89"></stop>		<stop offset="1" style="stop-color:#00A551"></stop>	</linearGradient>	<path class="st0" d="M10.1,0C4.5,0,0,4.5,0,10.1s4.5,10.1,10.1,10.1s10.1-4.5,10.1-10.1S15.7,0,10.1,0z"></path>			<linearGradient id="SVGID_2_" gradientUnits="userSpaceOnUse" x1="16.2223" y1="-59.3179" x2="62.9543" y2="-11.3888" gradientTransform="matrix(1 0 0 1 0 43.7274)">		<stop offset="0" style="stop-color:#008ED3"></stop>		<stop offset="0.201" style="stop-color:#0092BE"></stop>		<stop offset="0.613" style="stop-color:#009B89"></stop>		<stop offset="1" style="stop-color:#00A551"></stop>	</linearGradient>	<path class="st1" d="M41.2,20.1c5.6,0,10.1-4.5,10-10.1c0-5.6-4.5-10.1-10.1-10c-5.6,0-10,4.5-10,10.1  C31.2,15.6,35.7,20.1,41.2,20.1L41.2,20.1z"></path>			<linearGradient id="SVGID_3_" gradientUnits="userSpaceOnUse" x1="1.2112" y1="-44.6769" x2="47.9412" y2="3.2512" gradientTransform="matrix(1 0 0 1 0 43.7274)">		<stop offset="0" style="stop-color:#008ED3"></stop>		<stop offset="0.201" style="stop-color:#0092BE"></stop>		<stop offset="0.613" style="stop-color:#009B89"></stop>		<stop offset="1" style="stop-color:#00A551"></stop>	</linearGradient>	<path class="st2" d="M41.2,30c-5.6,0-10.1,4.5-10.1,10c0,5.6,4.5,10.1,10,10.1c5.6,0,10.1-4.5,10.1-10l0,0  C51.3,34.5,46.8,30,41.2,30z"></path>	<path class="st3" d="M79.5,5.2c-0.2,0-0.5,0.1-0.9,0.2s-0.7,0.2-1,0.4c-0.3,0.2-0.5,0.6-0.6,1c-0.1,0.7-0.2,1.4-0.2,2.2v5.9  c0.1,1.6-0.6,3.1-1.7,4.2c-1.3,1.1-2.9,1.7-4.6,1.6c-1.8,0.1-3.7-0.4-5.1-1.5c-1.2-1.1-1.9-2.6-1.8-4.2V6.9c0-0.2,0-0.5-0.1-0.7  s-0.3-0.4-0.6-0.5c-0.2-0.1-0.5-0.2-0.7-0.2c-0.3-0.1-0.5-0.1-0.7-0.1V4.6h8.2v0.8c-0.2,0-0.5,0-0.7,0.1c-0.2,0-0.5,0.1-0.7,0.2  s-0.4,0.2-0.6,0.4c-0.1,0.2-0.1,0.5-0.1,0.7v8c-0.1,1.2,0.3,2.4,1,3.4c1.7,1.5,4.3,1.4,5.9-0.1c0.8-1,1.2-2.2,1.1-3.5V9.3  c0-0.7,0-1.4-0.2-2.1c-0.1-0.4-0.3-0.8-0.6-1s-0.6-0.4-1-0.4c-0.5-0.1-0.8-0.2-1-0.2V4.7h6.8L79.5,5.2z"></path>	<path class="st3" d="M94.6,6.1c0.8,0.7,1.4,1.6,1.8,2.6c0.5,1.1,0.7,2.3,0.7,3.4s-0.2,2.2-0.6,3.3c-0.4,1-0.9,1.9-1.6,2.7  c-0.8,0.8-1.7,1.4-2.7,1.8c-1.2,0.5-2.4,0.7-3.6,0.7c-1.1,0-2.2-0.2-3.2-0.6c-2-0.7-3.6-2.3-4.5-4.2c-0.5-1.1-0.7-2.2-0.7-3.4  c0-1.2,0.2-2.4,0.7-3.5c0.4-1,1-1.9,1.8-2.7c0.8-0.7,1.7-1.3,2.7-1.7c2.1-0.8,4.5-0.8,6.6,0C93,4.9,93.9,5.4,94.6,6.1z M91.8,17.4  c0.3-0.7,0.6-1.5,0.7-2.3c0.2-1,0.2-1.9,0.2-2.9c0-0.9-0.1-1.8-0.2-2.7c-0.1-0.8-0.3-1.6-0.7-2.3c-0.3-0.6-0.7-1.2-1.3-1.6  S89.3,5,88.6,5c-1.3,0-2.5,0.7-3,1.9c-0.8,1.7-1.1,3.5-1,5.4c0,0.9,0.1,1.9,0.2,2.8c0.1,0.8,0.4,1.6,0.7,2.3  c0.3,0.6,0.7,1.1,1.2,1.5c1.1,0.7,2.6,0.7,3.7,0C91.1,18.5,91.5,18,91.8,17.4z"></path>	<path class="st3" d="M116.5,5.2c-0.2,0-0.5,0.1-0.9,0.1c-0.4,0.1-0.7,0.2-1,0.4c-0.3,0.3-0.5,0.6-0.6,1c-0.1,0.7-0.2,1.4-0.2,2.1  v11.3h-2l-9.7-12.2v7.4c0,0.7,0,1.4,0.2,2.1c0.1,0.4,0.3,0.8,0.6,1s0.6,0.3,0.9,0.4c0.3,0.1,0.7,0.2,1,0.3V20h-6.7v-0.9  c0.3,0,0.7-0.1,1-0.2c0.3-0.1,0.6-0.2,0.9-0.4c0.3-0.2,0.5-0.6,0.6-1c0.1-0.7,0.2-1.5,0.2-2.2V7.8c0-0.4-0.1-0.7-0.2-1  c-0.1-0.3-0.3-0.6-0.5-0.9c-0.3-0.3-0.6-0.5-0.9-0.6C98.8,5.1,98.5,5,98.1,5V4.1h5.9l8.5,10.7v-6c0-0.7,0-1.4-0.2-2.1  c-0.1-0.4-0.3-0.8-0.6-1s-0.6-0.4-0.9-0.4c-0.3-0.1-0.7-0.2-1-0.3V4.1h6.7V5.2z"></path>	<path class="st3" d="M134.8,13.7c-0.2,0-0.4,0-0.6,0.1c-0.2,0-0.4,0.1-0.7,0.2s-0.5,0.2-0.6,0.5c-0.1,0.2-0.1,0.5-0.1,0.7V17  c0,0.4,0,0.7,0,0.9s0,0.5,0,0.8c-1,0.6-2.1,1-3.2,1.3c-1.3,0.4-2.6,0.6-3.9,0.6c-1.1,0-2.1-0.2-3.2-0.5c-1-0.3-1.9-0.9-2.6-1.6  c-0.8-0.7-1.4-1.6-1.8-2.6c-0.4-1.1-0.7-2.3-0.6-3.5c0-1.2,0.2-2.3,0.6-3.4c0.8-2.1,2.4-3.7,4.5-4.4c1.1-0.4,2.3-0.6,3.6-0.6  c0.8,0,1.7,0.1,2.5,0.3c0.6,0.2,1.3,0.4,1.9,0.7l0.7-0.6h1l0.1,5.8h-1c-0.4-1.4-1.1-2.7-2-3.9c-0.7-0.8-1.8-1.3-2.9-1.3  c-1.3,0-2.6,0.7-3.3,1.9c-0.8,1.6-1.2,3.4-1.1,5.2c-0.1,1.9,0.3,3.8,1.1,5.5c0.6,1.2,1.8,2,3.2,2c0.6,0,1.2-0.1,1.7-0.3  c0.4-0.2,0.8-0.4,1.2-0.7v-3.2c0-0.2,0-0.5-0.1-0.7s-0.3-0.4-0.6-0.5s-0.5-0.2-0.8-0.3c-0.3-0.1-0.6-0.1-0.8-0.1v-0.9h8.1  L134.8,13.7z"></path>	<path class="st3" d="M150,6.1c0.8,0.7,1.4,1.6,1.8,2.6c0.5,1.1,0.7,2.3,0.7,3.4s-0.2,2.2-0.6,3.3c-0.4,1-0.9,1.9-1.6,2.7  c-0.8,0.8-1.7,1.4-2.7,1.8c-1.2,0.5-2.4,0.7-3.6,0.7c-1.1,0-2.2-0.2-3.2-0.6c-1-0.4-1.9-0.9-2.7-1.6c-0.8-0.7-1.4-1.6-1.8-2.6  c-0.5-1.1-0.7-2.2-0.7-3.4c0-1.2,0.2-2.4,0.7-3.5c0.4-1,1-1.9,1.8-2.7c0.8-0.7,1.7-1.3,2.7-1.7c1.1-0.4,2.2-0.6,3.3-0.6  s2.2,0.2,3.3,0.6C148.3,4.8,149.2,5.4,150,6.1z M147.2,17.4c0.3-0.7,0.6-1.5,0.7-2.3c0.2-1,0.2-1.9,0.2-2.9c0-0.9-0.1-1.8-0.2-2.7  c-0.1-0.8-0.3-1.6-0.7-2.3c-0.3-0.6-0.7-1.2-1.2-1.6c-0.6-0.4-1.2-0.6-1.9-0.6c-1.3,0-2.5,0.7-3,1.9c-0.8,1.7-1.1,3.5-1,5.4  c0,0.9,0.1,1.9,0.2,2.8c0.1,0.8,0.4,1.6,0.7,2.3c0.3,0.6,0.7,1.1,1.3,1.5c1.1,0.7,2.6,0.7,3.7,0C146.5,18.5,146.9,18,147.2,17.4z"></path>	<path class="st3" d="M168.6,14.8l-0.5,5.3h-14.6v-0.7l10-14h-3.4c-0.5,0-1,0-1.5,0.1c-0.3,0-0.6,0.1-0.9,0.3  c-0.4,0.2-0.8,0.5-1,0.9c-0.6,0.8-1.1,1.7-1.5,2.5h-0.9l0.5-4.8h13.5v0.7l-10.1,14.1h3.9c0.8,0,1.7,0,2.5-0.1  c0.4-0.1,0.7-0.3,1-0.5c0.4-0.5,0.8-1.1,1.2-1.7c0.4-0.6,0.7-1.3,1-1.9h0.8V14.8z"></path>	<path class="st3" d="M178.1,20.1h-8.6v-0.9l0.9-0.1c0.3,0,0.5-0.1,0.8-0.1c0.2-0.1,0.4-0.2,0.6-0.4c0.1-0.2,0.2-0.5,0.1-0.7V6.7  c0-0.2,0-0.5-0.1-0.7s-0.3-0.4-0.6-0.5c-0.3-0.1-0.5-0.2-0.8-0.2c-0.3-0.1-0.6-0.1-0.9-0.2V4.2h8.6v0.9c-0.2,0-0.5,0.1-0.8,0.1  s-0.6,0.1-0.8,0.2c-0.2,0.1-0.5,0.2-0.6,0.5c-0.1,0.2-0.1,0.5-0.1,0.7v11.2c0,0.2,0,0.5,0.2,0.7c0.1,0.2,0.3,0.4,0.6,0.5  c0.2,0.1,0.5,0.2,0.8,0.2c0.3,0.1,0.6,0.1,0.9,0.1L178.1,20.1z"></path>	<path class="st3" d="M70,47.2h-8.6v-0.9c0.2,0,0.5,0,0.9-0.1c0.3,0,0.5-0.1,0.8-0.1c0.2-0.1,0.4-0.2,0.6-0.4  c0.1-0.2,0.2-0.5,0.1-0.7V33.8c0-0.2,0-0.5-0.1-0.7s-0.3-0.4-0.6-0.5s-0.5-0.2-0.8-0.2c-0.3-0.1-0.6-0.1-0.9-0.2v-0.9H70v0.9  l-0.8,0.1c-0.3,0-0.6,0.1-0.8,0.2c-0.2,0.1-0.5,0.2-0.6,0.5c-0.1,0.2-0.1,0.5-0.1,0.7v11.2c0,0.2,0,0.5,0.1,0.7s0.3,0.4,0.6,0.5  c0.2,0.1,0.5,0.2,0.8,0.2c0.3,0.1,0.6,0.1,0.9,0.1L70,47.2z"></path>	<path class="st3" d="M85.8,47.2h-6.6v-0.8c0.1,0,0.3,0,0.5-0.1c0.2,0,0.3,0,0.5-0.1c0.1-0.1,0.3-0.2,0.3-0.4  c0.1-0.2,0.1-0.5,0.1-0.7v-5.2c0-0.6-0.1-1.2-0.4-1.7c-0.3-0.4-0.7-0.6-1.2-0.6c-0.3,0-0.6,0-0.8,0.1c-0.3,0.1-0.5,0.2-0.7,0.4  c-0.2,0.1-0.4,0.3-0.5,0.5s-0.2,0.3-0.3,0.4v6c0,0.2,0,0.4,0.1,0.6c0.1,0.2,0.2,0.3,0.4,0.4c0.1,0.1,0.3,0.1,0.4,0.2  c0.2,0.1,0.3,0.1,0.5,0.1v0.8h-6.7v-0.8c0.2,0,0.4,0,0.5-0.1c0.2,0,0.3-0.1,0.5-0.1c0.2-0.1,0.4-0.2,0.5-0.4S73,45.3,73,45v-6.5  c0-0.2-0.1-0.5-0.2-0.7c-0.1-0.2-0.3-0.4-0.5-0.5s-0.3-0.2-0.5-0.2C71.6,37,71.4,37,71.1,37v-0.8l5.2-0.3l0.2,0.2v1.6l0,0  c0.2-0.2,0.5-0.4,0.7-0.7c0.3-0.2,0.5-0.4,0.8-0.6c0.3-0.2,0.7-0.4,1.1-0.5c0.5-0.1,0.9-0.2,1.4-0.2c1-0.1,2,0.3,2.7,1  c0.6,0.8,0.9,1.7,0.9,2.7v5.5c0,0.2,0,0.4,0.1,0.7c0.1,0.2,0.3,0.3,0.4,0.4c0.1,0.1,0.3,0.1,0.4,0.2c0.2,0.1,0.4,0.1,0.6,0.1  L85.8,47.2z"></path>	<path class="st3" d="M91.9,47.6c-0.7,0-1.4-0.1-2.1-0.3c-0.5-0.2-1.1-0.4-1.6-0.7l-0.3,0.8H87l-0.1-4.1h0.8  c0.1,0.4,0.3,0.8,0.5,1.1c0.2,0.4,0.5,0.8,0.9,1.1c0.3,0.3,0.7,0.6,1.2,0.8c0.4,0.2,0.9,0.3,1.4,0.3s1-0.1,1.5-0.4  c0.3-0.3,0.5-0.8,0.5-1.2c0-0.3-0.1-0.5-0.2-0.7c-0.2-0.2-0.4-0.4-0.6-0.5c-0.3-0.2-0.6-0.3-0.9-0.4c-0.3-0.1-0.8-0.2-1.3-0.4  c-0.4-0.1-0.9-0.3-1.3-0.5c-0.4-0.2-0.8-0.4-1.1-0.7s-0.6-0.7-0.8-1c-0.2-0.5-0.3-1-0.3-1.5c0-1,0.5-2,1.3-2.5c1-0.7,2.2-1,3.4-1  c0.6,0,1.2,0.1,1.8,0.2c0.5,0.1,1,0.3,1.4,0.5l0.2-0.7h0.8l0.4,3.8h-0.8c-0.3-0.8-0.7-1.5-1.3-2c-0.5-0.5-1.3-0.8-2-0.8  c-0.5,0-0.9,0.1-1.3,0.4c-0.3,0.2-0.5,0.6-0.5,1c0,0.5,0.2,1,0.7,1.2c0.6,0.3,1.3,0.6,2,0.7c1.1,0.2,2,0.7,2.9,1.4  c0.6,0.6,0.9,1.4,0.9,2.3c0,1.1-0.5,2.2-1.4,2.8C94.5,47.3,93.2,47.6,91.9,47.6z"></path>	<path class="st3" d="M106.5,46.7c-0.5,0.2-1,0.4-1.5,0.6c-0.6,0.2-1.3,0.3-2,0.3c-0.9,0.1-1.8-0.2-2.5-0.8  c-0.6-0.7-0.9-1.5-0.8-2.4v-6.8h-2v-1.2h2V33h3.6v3.4h3.1v1.2h-3.1v6.1c0,0.6,0.1,1.3,0.4,1.8c0.3,0.4,0.8,0.6,1.3,0.5  c0.2,0,0.5,0,0.8,0c0.2,0,0.5,0,0.7-0.1V46.7z"></path>	<path class="st3" d="M114.2,47.2h-6.9v-0.8c0.2,0,0.4,0,0.6-0.1c0.2,0,0.3-0.1,0.5-0.1c0.2-0.1,0.4-0.2,0.5-0.4s0.1-0.4,0.1-0.7  v-6.5c0-0.2-0.1-0.5-0.2-0.7c-0.1-0.2-0.3-0.4-0.4-0.5c-0.2-0.1-0.4-0.2-0.6-0.3c-0.2-0.1-0.5-0.1-0.7-0.2v-0.8l5.4-0.3l0.2,0.2  v8.8c0,0.2,0,0.5,0.2,0.7c0.1,0.2,0.3,0.3,0.5,0.4c0.2,0.1,0.3,0.1,0.5,0.2c0.2,0.1,0.4,0.1,0.6,0.1L114.2,47.2z M112.6,32  c0,0.5-0.2,1.1-0.6,1.4c-0.9,0.8-2.2,0.8-3,0c-0.4-0.4-0.6-0.9-0.6-1.4c0-0.6,0.2-1.1,0.6-1.4c0.9-0.8,2.2-0.8,3.1,0  C112.4,30.9,112.6,31.5,112.6,32z"></path>	<path class="st3" d="M123.4,46.7c-0.5,0.2-1,0.4-1.5,0.6c-0.6,0.2-1.3,0.3-2,0.3c-0.9,0.1-1.8-0.2-2.5-0.8  c-0.6-0.7-0.9-1.5-0.8-2.4v-6.8h-2v-1.2h2V33h3.6v3.4h3.1v1.2h-3.1v6.1c0,0.6,0.1,1.3,0.4,1.8c0.3,0.4,0.8,0.6,1.3,0.5  c0.2,0,0.5,0,0.8,0c0.2,0,0.5,0,0.7-0.1V46.7z"></path>	<path class="st3" d="M138.5,46.9l-5.2,0.3l-0.2-0.2v-1.5H133c-0.2,0.2-0.5,0.5-0.7,0.7c-0.3,0.2-0.5,0.4-0.8,0.6  c-0.8,0.4-1.6,0.6-2.5,0.6c-1,0.1-1.9-0.3-2.5-1c-0.6-0.8-0.9-1.8-0.9-2.9v-5c0-0.2,0-0.5-0.2-0.7c-0.1-0.2-0.3-0.3-0.4-0.5  c-0.2-0.1-0.4-0.2-0.6-0.2c-0.2,0-0.4-0.1-0.6-0.1v-0.8l5.3-0.3l0.1,0.2v7.5c0,0.6,0.1,1.2,0.4,1.7c0.3,0.4,0.7,0.6,1.2,0.5  c0.5,0,1-0.1,1.4-0.4c0.4-0.2,0.7-0.5,0.9-0.9v-6c0-0.2,0-0.5-0.1-0.7c-0.2-0.4-0.6-0.7-1-0.7c-0.2,0-0.5-0.1-0.8-0.1v-0.8l5.3-0.3  l0.2,0.2v8.6c0,0.2,0,0.5,0.1,0.7s0.3,0.3,0.4,0.5c0.2,0.1,0.3,0.2,0.5,0.2s0.4,0.1,0.7,0.1L138.5,46.9z"></path>	<path class="st3" d="M147.5,46.7c-0.5,0.2-1,0.4-1.5,0.6c-0.6,0.2-1.3,0.3-2,0.3c-0.9,0.1-1.8-0.2-2.5-0.8  c-0.6-0.7-0.9-1.5-0.8-2.4v-6.8h-2v-1.2h2V33h3.6v3.4h3.1v1.2h-3.1v6.1c-0.1,0.6,0.1,1.3,0.4,1.8c0.3,0.4,0.8,0.6,1.3,0.5  c0.2,0,0.5,0,0.8,0c0.2,0,0.5,0,0.7-0.1V46.7z"></path>	<path class="st3" d="M160.1,44.5c-0.3,0.4-0.6,0.8-0.9,1.2c-0.4,0.4-0.8,0.7-1.2,1c-0.5,0.3-1,0.5-1.5,0.6  c-0.6,0.2-1.1,0.2-1.7,0.2c-1,0-1.9-0.1-2.8-0.5c-0.7-0.3-1.4-0.7-1.9-1.3c-0.5-0.5-0.9-1.2-1.1-1.9c-0.3-0.7-0.4-1.5-0.4-2.3  c0-0.7,0.1-1.5,0.4-2.2c0.3-0.7,0.7-1.3,1.2-1.9c0.5-0.6,1.2-1,1.9-1.3c0.8-0.3,1.7-0.5,2.5-0.5c0.9,0,1.7,0.1,2.5,0.4  c0.6,0.2,1.2,0.6,1.6,1s0.7,0.9,0.9,1.5c0.2,0.6,0.3,1.2,0.3,1.8V41h-7.4c-0.1,1.2,0.2,2.4,0.9,3.5c1.2,1.3,3.1,1.6,4.6,0.6  c0.6-0.4,1-0.9,1.4-1.5L160.1,44.5z M155.9,40.3c0-0.4,0-0.9-0.1-1.4c0-0.4-0.1-0.8-0.2-1.1s-0.3-0.6-0.5-0.8s-0.5-0.3-0.8-0.3  c-0.6,0-1.1,0.3-1.3,0.9c-0.4,0.9-0.6,1.8-0.5,2.7L155.9,40.3z"></path></g></svg>
